<mxfile host="Electron" agent="Mozilla/5.0 (Windows NT 10.0; Win64; x64) AppleWebKit/537.36 (KHTML, like Gecko) draw.io/24.7.17 Chrome/128.0.6613.36 Electron/32.0.1 Safari/537.36" version="24.7.17">
  <diagram name="Страница — 1" id="2FZ5orQabk9qAPB0q3bC">
    <mxGraphModel dx="1493" dy="2568" grid="1" gridSize="10" guides="1" tooltips="1" connect="1" arrows="1" fold="1" page="1" pageScale="1" pageWidth="1169" pageHeight="1654" math="0" shadow="0">
      <root>
        <mxCell id="0" />
        <mxCell id="1" parent="0" />
        <mxCell id="ndX3KLHFtpuB8M6XMM_t-3" value="MainWindow" style="swimlane;fontStyle=1;align=center;verticalAlign=top;childLayout=stackLayout;horizontal=1;startSize=26;horizontalStack=0;resizeParent=1;resizeParentMax=0;resizeLast=0;collapsible=1;marginBottom=0;whiteSpace=wrap;html=1;fontFamily=Helvetica;fontSize=13;" parent="1" vertex="1">
          <mxGeometry x="460" y="-10" width="550" height="256" as="geometry" />
        </mxCell>
        <mxCell id="ndX3KLHFtpuB8M6XMM_t-5" value="" style="line;strokeWidth=1;fillColor=none;align=left;verticalAlign=middle;spacingTop=-1;spacingLeft=3;spacingRight=3;rotatable=0;labelPosition=right;points=[];portConstraint=eastwest;strokeColor=inherit;fontFamily=Helvetica;fontSize=13;" parent="ndX3KLHFtpuB8M6XMM_t-3" vertex="1">
          <mxGeometry y="26" width="550" height="8" as="geometry" />
        </mxCell>
        <mxCell id="ndX3KLHFtpuB8M6XMM_t-6" value="&lt;div style=&quot;overflow: auto; padding: calc(var(--ds-md-zoom)*8px)calc(var(--ds-md-zoom)*12px); word-break: break-all; margin-top: 0px !important; margin-bottom: 0px !important; font-size: 13px;&quot;&gt;&lt;font style=&quot;font-size: 13px;&quot;&gt;&lt;span style=&quot;background-color: initial; white-space: normal; font-size: 13px;&quot;&gt;+MainWindow()&lt;/span&gt;&lt;/font&gt;&lt;/div&gt;&lt;div style=&quot;overflow: auto; padding: calc(var(--ds-md-zoom)*8px)calc(var(--ds-md-zoom)*12px); word-break: break-all; margin-top: 0px !important; margin-bottom: 0px !important; font-size: 13px;&quot;&gt;&lt;font style=&quot;font-size: 13px;&quot;&gt;&lt;span style=&quot;background-color: initial; white-space: normal; font-size: 13px;&quot;&gt;-Unlock_Click(object sender, RoutedEventArgs e)&lt;/span&gt;&lt;br style=&quot;font-size: 13px;&quot;&gt;&lt;/font&gt;&lt;/div&gt;&lt;div style=&quot;overflow: auto; padding: calc(var(--ds-md-zoom)*8px)calc(var(--ds-md-zoom)*12px); word-break: break-all; margin-top: 0px !important; margin-bottom: 0px !important; font-size: 13px;&quot;&gt;&lt;div style=&quot;font-size: 13px;&quot;&gt;&lt;font style=&quot;font-size: 13px;&quot;&gt;-Logout_Click(object sender, RoutedEventArgs e)&lt;/font&gt;&lt;/div&gt;&lt;div style=&quot;font-size: 13px;&quot;&gt;&lt;font style=&quot;font-size: 13px;&quot;&gt;-UpdateProfile_Click(object sender, RoutedEventArgs e)&lt;/font&gt;&lt;/div&gt;&lt;div style=&quot;font-size: 13px;&quot;&gt;&lt;font style=&quot;font-size: 13px;&quot;&gt;-AddNotification_Click(object sender, RoutedEventArgs e)&lt;/font&gt;&lt;/div&gt;&lt;div style=&quot;font-size: 13px;&quot;&gt;&lt;font style=&quot;font-size: 13px;&quot;&gt;-ChangePassword_Click(object sender, RoutedEventArgs e)&lt;/font&gt;&lt;/div&gt;&lt;div style=&quot;font-size: 13px;&quot;&gt;&lt;font style=&quot;font-size: 13px;&quot;&gt;-MainTabControl_SelectionChanged(object sender, SelectionChangedEventArgs e)&lt;/font&gt;&lt;/div&gt;&lt;div style=&quot;font-size: 13px;&quot;&gt;&lt;font style=&quot;font-size: 13px;&quot;&gt;-ThemeComboBox_SelectionChanged(object sender, SelectionChangedEventArgs e)&lt;/font&gt;&lt;/div&gt;&lt;div style=&quot;font-size: 13px;&quot;&gt;-UpdateProfileFields()&lt;/div&gt;&lt;div style=&quot;font-size: 13px;&quot;&gt;-UpdateNotificationsList()&lt;/div&gt;&lt;div style=&quot;font-size: 13px;&quot;&gt;-ApplyTheme(string theme)&lt;/div&gt;&lt;/div&gt;" style="text;strokeColor=none;fillColor=none;align=left;verticalAlign=top;spacingLeft=4;spacingRight=4;overflow=hidden;rotatable=0;points=[[0,0.5],[1,0.5]];portConstraint=eastwest;whiteSpace=wrap;html=1;fontFamily=Helvetica;fontSize=13;" parent="ndX3KLHFtpuB8M6XMM_t-3" vertex="1">
          <mxGeometry y="34" width="550" height="222" as="geometry" />
        </mxCell>
        <mxCell id="4vTuB9dTyT2RcxNyYg3A-1" value="PaswordManager" style="swimlane;fontStyle=1;align=center;verticalAlign=top;childLayout=stackLayout;horizontal=1;startSize=26;horizontalStack=0;resizeParent=1;resizeParentMax=0;resizeLast=0;collapsible=1;marginBottom=0;whiteSpace=wrap;html=1;fontFamily=Helvetica;fontSize=13;" vertex="1" parent="1">
          <mxGeometry x="450" y="350" width="550" height="290" as="geometry" />
        </mxCell>
        <mxCell id="4vTuB9dTyT2RcxNyYg3A-2" value="&lt;div style=&quot;overflow: auto; padding: calc(var(--ds-md-zoom)*8px)calc(var(--ds-md-zoom)*12px); text-wrap: wrap; word-break: break-all; font-size: 13px; margin-top: 0px !important; margin-bottom: 0px !important;&quot;&gt;-_instance:PaswordManager&lt;/div&gt;&lt;div style=&quot;overflow: auto; padding: calc(var(--ds-md-zoom)*8px)calc(var(--ds-md-zoom)*12px); word-break: break-all; margin-top: 0px !important; margin-bottom: 0px !important; font-size: 13px;&quot;&gt;&lt;font style=&quot;font-size: 13px;&quot;&gt;&lt;span style=&quot;font-size: 13px; text-wrap: wrap;&quot;&gt;-_notifications:List&amp;lt;NotificationEntry&amp;gt;&lt;/span&gt;&lt;/font&gt;&lt;font style=&quot;font-size: 13px;&quot;&gt;&lt;span style=&quot;font-size: 13px; text-wrap: wrap;&quot;&gt;&lt;br style=&quot;font-size: 13px;&quot;&gt;&lt;/span&gt;&lt;/font&gt;&lt;/div&gt;&lt;div style=&quot;overflow: auto; padding: calc(var(--ds-md-zoom)*8px)calc(var(--ds-md-zoom)*12px); word-break: break-all; margin-top: 0px !important; margin-bottom: 0px !important; font-size: 13px;&quot;&gt;-_profile:Profile&lt;br style=&quot;font-size: 13px;&quot;&gt;&lt;/div&gt;&lt;div style=&quot;overflow: auto; padding: calc(var(--ds-md-zoom)*8px)calc(var(--ds-md-zoom)*12px); word-break: break-all; margin-top: 0px !important; margin-bottom: 0px !important; font-size: 13px;&quot;&gt;-_isAuthenticated:boolean&lt;/div&gt;&lt;div style=&quot;overflow: auto; padding: calc(var(--ds-md-zoom)*8px)calc(var(--ds-md-zoom)*12px); word-break: break-all; margin-top: 0px !important; margin-bottom: 0px !important; font-size: 13px;&quot;&gt;-_masterPassword:string&lt;/div&gt;&lt;div style=&quot;overflow: auto; padding: calc(var(--ds-md-zoom)*8px)calc(var(--ds-md-zoom)*12px); word-break: break-all; margin-top: 0px !important; margin-bottom: 0px !important; font-size: 13px;&quot;&gt;+IsAuthenticated:boolean&lt;/div&gt;&lt;div style=&quot;overflow: auto; padding: calc(var(--ds-md-zoom)*8px)calc(var(--ds-md-zoom)*12px); word-break: break-all; margin-top: 0px !important; margin-bottom: 0px !important; font-size: 13px;&quot;&gt;+Theme: string&lt;/div&gt;" style="text;strokeColor=none;fillColor=none;align=left;verticalAlign=top;spacingLeft=4;spacingRight=4;overflow=hidden;rotatable=0;points=[[0,0.5],[1,0.5]];portConstraint=eastwest;whiteSpace=wrap;html=1;fontFamily=Helvetica;fontSize=13;" vertex="1" parent="4vTuB9dTyT2RcxNyYg3A-1">
          <mxGeometry y="26" width="550" height="124" as="geometry" />
        </mxCell>
        <mxCell id="4vTuB9dTyT2RcxNyYg3A-3" value="" style="line;strokeWidth=1;fillColor=none;align=left;verticalAlign=middle;spacingTop=-1;spacingLeft=3;spacingRight=3;rotatable=0;labelPosition=right;points=[];portConstraint=eastwest;strokeColor=inherit;fontFamily=Helvetica;fontSize=13;" vertex="1" parent="4vTuB9dTyT2RcxNyYg3A-1">
          <mxGeometry y="150" width="550" height="8" as="geometry" />
        </mxCell>
        <mxCell id="4vTuB9dTyT2RcxNyYg3A-4" value="&lt;div style=&quot;font-size: 13px;&quot;&gt;&lt;div style=&quot;overflow: auto; padding: calc(var(--ds-md-zoom)*8px)calc(var(--ds-md-zoom)*12px); word-break: break-all; margin-top: 0px !important; margin-bottom: 0px !important; font-size: 13px;&quot;&gt;-PaswordManager()&lt;/div&gt;&lt;div style=&quot;overflow: auto; padding: calc(var(--ds-md-zoom)*8px)calc(var(--ds-md-zoom)*12px); word-break: break-all; margin-top: 0px !important; margin-bottom: 0px !important; font-size: 13px;&quot;&gt;+Authenticate(string password):boolean&lt;/div&gt;&lt;div style=&quot;overflow: auto; padding: calc(var(--ds-md-zoom)*8px)calc(var(--ds-md-zoom)*12px); word-break: break-all; margin-top: 0px !important; margin-bottom: 0px !important; font-size: 13px;&quot;&gt;+Logout()&lt;/div&gt;&lt;div style=&quot;overflow: auto; padding: calc(var(--ds-md-zoom)*8px)calc(var(--ds-md-zoom)*12px); word-break: break-all; margin-top: 0px !important; margin-bottom: 0px !important; font-size: 13px;&quot;&gt;+ChangeMasterPassword(string oldPassword, string newPassword):boolean&lt;/div&gt;&lt;div style=&quot;overflow: auto; padding: calc(var(--ds-md-zoom)*8px)calc(var(--ds-md-zoom)*12px); word-break: break-all; margin-top: 0px !important; margin-bottom: 0px !important; font-size: 13px;&quot;&gt;+GetProfile():Profile&lt;/div&gt;&lt;div style=&quot;overflow: auto; padding: calc(var(--ds-md-zoom)*8px)calc(var(--ds-md-zoom)*12px); word-break: break-all; margin-top: 0px !important; margin-bottom: 0px !important; font-size: 13px;&quot;&gt;+UpdateProfile(string name, string email)&lt;/div&gt;&lt;div style=&quot;overflow: auto; padding: calc(var(--ds-md-zoom)*8px)calc(var(--ds-md-zoom)*12px); word-break: break-all; margin-top: 0px !important; margin-bottom: 0px !important; font-size: 13px;&quot;&gt;+AddNotification(string message)&lt;/div&gt;&lt;div style=&quot;overflow: auto; padding: calc(var(--ds-md-zoom)*8px)calc(var(--ds-md-zoom)*12px); word-break: break-all; margin-top: 0px !important; margin-bottom: 0px !important; font-size: 13px;&quot;&gt;+GetAllNotifications(): List&amp;lt;NotificationEntry&amp;gt;&lt;/div&gt;&lt;/div&gt;" style="text;strokeColor=none;fillColor=none;align=left;verticalAlign=top;spacingLeft=4;spacingRight=4;overflow=hidden;rotatable=0;points=[[0,0.5],[1,0.5]];portConstraint=eastwest;whiteSpace=wrap;html=1;fontFamily=Helvetica;fontSize=13;" vertex="1" parent="4vTuB9dTyT2RcxNyYg3A-1">
          <mxGeometry y="158" width="550" height="132" as="geometry" />
        </mxCell>
        <mxCell id="4vTuB9dTyT2RcxNyYg3A-5" value="" style="endArrow=block;dashed=1;endFill=0;endSize=12;html=1;rounded=0;exitX=0.473;exitY=1.028;exitDx=0;exitDy=0;exitPerimeter=0;entryX=0.489;entryY=-0.014;entryDx=0;entryDy=0;entryPerimeter=0;fontFamily=Helvetica;fontSize=13;" edge="1" parent="1" source="ndX3KLHFtpuB8M6XMM_t-6" target="4vTuB9dTyT2RcxNyYg3A-1">
          <mxGeometry width="160" relative="1" as="geometry">
            <mxPoint x="500" y="180" as="sourcePoint" />
            <mxPoint x="640" y="300" as="targetPoint" />
          </mxGeometry>
        </mxCell>
      </root>
    </mxGraphModel>
  </diagram>
</mxfile>
